<svg width="29" height="25" viewBox="0 0 29 25" fill="none" xmlns="http://www.w3.org/2000/svg">
<path d="M7.19322 0.558814L7.19319 0.55882C6.52171 0.689382 6.27662 0.751761 5.80074 0.919717L5.80074 0.919718C3.26253 1.81559 1.30826 4.05869 0.704875 6.74522L0.704872 6.74523C0.167769 9.13694 0.686042 11.4016 2.26181 13.8847C4.00741 16.6354 7.27231 19.742 11.3379 22.5653L11.6231 22.1546L11.3379 22.5653C11.8287 22.9062 12.5358 23.3713 13.1295 23.7506C13.4266 23.9403 13.6982 24.1104 13.9024 24.2339C14.0038 24.2953 14.0925 24.3475 14.1609 24.3855C14.1943 24.404 14.229 24.4226 14.2608 24.4378C14.2761 24.4451 14.2984 24.4553 14.3237 24.4648C14.3268 24.466 14.4086 24.5 14.5122 24.5C14.6109 24.5 14.6896 24.469 14.6982 24.4657L14.6989 24.4654C14.7239 24.4561 14.7457 24.4461 14.7606 24.4391C14.7915 24.4244 14.825 24.4066 14.8569 24.389C14.9223 24.3529 15.0071 24.3033 15.104 24.245C15.2991 24.1277 15.5594 23.9657 15.8461 23.7837C16.4195 23.4197 17.1096 22.9689 17.6146 22.6225C20.1881 20.8576 22.2137 19.1714 24.0656 17.2481L23.7289 16.924L24.0656 17.2481C25.4439 15.8166 26.2933 14.7376 27.0323 13.4627C28.0464 11.7132 28.5048 10.2299 28.5 8.58709C28.4936 6.45084 27.7109 4.47537 26.2582 2.9394L26.2582 2.93939C25.0147 1.62465 23.4562 0.813065 21.6675 0.549096C21.3161 0.49724 20.8011 0.490147 20.3166 0.510689C19.833 0.531194 19.3234 0.581608 18.9851 0.663426C17.1932 1.0966 15.5551 2.15669 14.5072 3.5738C14.1038 3.03729 13.4229 2.35864 12.8959 1.97124C12.0974 1.38416 10.9918 0.880049 9.9891 0.641725L9.9891 0.641723C9.71392 0.576322 9.11469 0.537526 8.58359 0.521389C8.30649 0.51297 8.028 0.51023 7.79063 0.514746C7.56673 0.519005 7.34135 0.530023 7.19322 0.558814Z" fill="white" stroke="#8D8D8D"/>
</svg>
