<svg width="20" height="20" viewBox="0 0 20 20" fill="none" xmlns="http://www.w3.org/2000/svg">
<path fill-rule="evenodd" clip-rule="evenodd" d="M7.39901 0.0605409C3.56561 0.692372 0.62743 3.64845 0.0703689 7.43375C-0.050641 8.25598 -0.0107963 9.72781 0.153174 10.4917C1.16558 15.2086 5.67503 18.1903 10.4313 17.2877C11.7029 17.0463 12.999 16.4423 14.1274 15.565L14.461 15.3056L16.7236 17.5731C17.968 18.8201 19.0526 19.8758 19.1338 19.9189C19.6758 20.2071 20.207 19.6757 19.919 19.1334C19.8758 19.0522 18.8206 17.9672 17.5741 16.7222L15.3077 14.4586L15.5669 14.1249C17.1988 12.024 17.8012 9.45938 17.2656 6.89351C16.5642 3.53313 13.9029 0.880527 10.4935 0.143382C9.81894 -0.00245095 8.06582 -0.0493667 7.39901 0.0605409ZM10.2818 1.29462C11.235 1.49781 12.0585 1.84372 12.8705 2.382C14.5711 3.50934 15.7132 5.18863 16.1486 7.20218C16.2677 7.75319 16.3113 9.07279 16.2305 9.68024C15.7746 13.1068 13.1098 15.7727 9.6847 16.2289C9.07752 16.3097 7.75849 16.266 7.20771 16.1469C4.20712 15.4975 1.93892 13.2352 1.29517 10.2497C1.1341 9.5028 1.12016 8.02277 1.26735 7.293C1.88399 4.23511 4.27566 1.84449 7.2897 1.27313C7.97766 1.14267 8.00772 1.14059 8.90207 1.16142C9.48635 1.17498 9.91453 1.21632 10.2818 1.29462Z" fill="black"/>
</svg>
